# Blender v2.76 (sub 0) OBJ File: ''
# www.blender.org
mtllib iron_mockup.mtl
o Cylinder.004_Cylinder.005
v -0.697182 -0.195459 -0.145840
v -1.067637 -0.182420 -0.029323
v -0.953983 0.052507 0.305741
v -0.379955 0.032304 0.125195
v -0.216727 -0.081349 -0.093616
v -0.678549 -0.149903 -0.079982
v -0.796596 0.528273 -0.205791
v -0.962883 0.406203 -0.698958
v -0.807125 -0.488623 -0.541776
v -0.640838 -0.366554 -0.039790
v -0.662875 -0.239947 -0.063277
v -0.129783 -0.363705 -0.004480
v -0.157255 -0.399357 0.083144
v -0.959538 -0.371121 0.335482
v -1.153416 -0.163248 0.277151
v -0.239210 -0.240504 0.098619
v -0.511132 -0.371227 0.193412
v -0.510240 -0.329544 0.190376
v -0.489595 0.025431 0.160388
v -0.436826 0.011543 0.144585
v -0.335689 -0.053497 0.116836
v -0.361450 -0.264077 0.363268
v -1.091795 0.848996 0.781733
v -0.909913 1.240708 0.057257
v -0.447258 0.535605 -0.207830
v -0.443096 0.050377 0.233844
v -0.211897 0.332223 -0.170487
v -0.261658 0.618097 -0.223521
v 0.194587 0.016760 1.005808
v 0.098778 0.021811 0.889825
v 0.065313 -0.264111 0.877683
v -0.243331 0.039846 0.475674
v -0.293625 0.042497 0.414790
v -0.483503 0.052507 0.184927
v 0.164940 -0.406867 1.011850
v 0.708546 -0.361501 0.088253
v 0.598498 -0.193784 0.151306
v 0.598458 -0.295980 0.128784
v 0.587307 -0.349843 0.119550
v 0.423097 -0.343385 0.159884
v 0.420545 -0.430998 0.141172
v 0.292724 -0.338258 0.191906
v 0.230059 -0.335793 0.207298
v 0.056946 -0.328985 0.249818
v 0.071763 -0.177940 0.279610
v -0.296443 0.089212 0.425758
v 0.107033 0.181589 0.350521
v 0.138919 0.506632 0.414631
v -0.398697 1.325980 0.722669
v 0.053655 -0.196626 0.279781
v -0.308048 -0.345464 0.332670
v 0.015448 -0.838484 0.147317
v -0.977240 1.401755 0.665892
v 0.113470 -0.019144 -0.196704
v -0.017246 0.011820 -0.308345
v 0.052835 -0.226556 -0.494368
v -0.035972 -0.091210 -0.443484
v 0.053593 0.365999 0.163432
v 0.205035 0.091392 0.028095
v -0.775007 0.742341 -0.330722
v -0.904042 0.647618 -0.720251
v -0.305888 -0.310310 -0.050891
v 0.462278 -0.218167 0.774451
v 0.255104 -0.207246 0.523651
v 0.085643 -0.195763 0.324918
v 0.082157 -0.198128 0.314285
v 0.094614 -0.207283 0.354202
v 0.151554 -0.304627 0.698877
v 0.171146 -0.503163 -0.472862
v 0.429373 -0.487050 -0.065037
v 0.490431 -0.459592 -0.031511
v 0.493688 -0.465361 -0.010479
v 0.502618 -0.454111 -0.024819
v 0.555919 -0.386959 -0.110411
v 0.548069 -0.358282 -0.087382
v 0.602853 -0.214161 0.133578
v 0.482563 -0.364472 0.465233
v 0.595522 -0.350638 0.125581
v 0.663781 0.919999 0.200036
v 0.550823 0.906164 0.539688
v 0.399865 -0.344765 0.204728
v 0.257772 -0.352344 0.464335
v 0.124877 -0.345173 0.463804
v 0.113464 0.190582 0.369631
v 0.308993 0.094875 -0.046158
v 0.344441 0.369527 -0.044912
v 0.376756 1.119310 -0.094996
v 0.030302 1.115068 -0.382040
v -0.038484 -0.480940 -0.275430
v -0.029449 -0.271314 -0.289433
v 0.195648 1.080087 -0.799029
v 0.126861 -0.515921 -0.692420
v 0.031693 -0.480081 -0.217287
v -0.125676 -0.358375 -0.017580
v -0.075766 -0.293606 -0.176770
v -0.073917 -0.293912 -0.180156
v -0.071408 -0.294328 -0.184754
v -0.069082 -0.294714 -0.189017
v -0.056229 -0.296846 -0.212569
v -0.052999 -0.264061 -0.249384
v -0.037323 -0.243718 -0.299383
v -0.043965 -0.201641 -0.325208
v -0.046665 -0.199761 -0.321589
v 0.137131 0.223677 0.439952
v 0.156923 0.251353 0.498759
v 0.193136 0.925463 0.538259
v 0.085032 0.951225 0.197724
v 0.375906 0.947848 -0.011309
v 0.344852 0.369776 -0.045182
v -0.530716 0.420585 -1.035750
v -0.374958 -0.474241 -0.869749
v -0.568691 0.658779 -0.974750
v -0.359908 0.812043 -0.344479
v -0.232398 0.760398 -0.742511
v 0.082656 -0.191927 0.315168
v 0.126475 -0.248196 0.458206
v 0.479982 -0.441085 -0.098973
v 0.336943 0.306669 0.503263
v 0.265359 -0.352753 0.464365
v 0.498657 -0.177756 0.057583
v 0.535298 0.213482 0.092008
v 0.355921 0.110407 -0.041978
v 0.487554 1.174753 0.275253
v 0.448419 1.169960 0.392928
v 0.392909 -0.345178 0.218155
v 0.129853 -0.252533 0.469232
v 0.134186 0.219560 0.431203
v 0.687436 -0.509056 -0.227972
v 0.756222 1.086951 -0.334582
v 0.708181 0.132262 -0.266434
v 0.559734 -0.496389 -0.147414
v 0.405800 1.413666 -0.364862
v 0.285769 1.412196 -0.464311
v 0.343054 1.400077 -0.608780
v 0.644291 1.062710 -0.769699
v 0.575505 -0.533297 -0.663089
v -0.097335 0.551543 -0.736463
v 0.058423 -0.343283 -0.570462
v 0.577985 -0.501744 -0.189117
v 0.574097 -0.501498 -0.187940
v 0.565918 -0.499294 -0.160235
v 0.578695 -0.501547 -0.185711
v 0.324495 1.176647 0.392433
v 0.387817 1.184402 0.202031
v 0.287042 1.185572 0.274452
v 0.537269 1.402455 -0.447869
v 0.498490 1.394057 -0.598618
v -0.044489 -0.202723 -0.326752
v -0.040972 -0.237349 -0.311695
v -0.121816 -0.176198 1.265662
v 0.008535 0.460954 1.184159
v -0.557717 0.211959 0.967466
v 0.577995 -0.504968 -0.185274
vn -0.139400 0.832400 -0.536300
vn -0.139400 0.832400 -0.536400
vn -0.936800 -0.100900 0.334900
vn -0.936400 -0.101600 0.336000
vn -0.162100 -0.895200 -0.415100
vn -0.697400 0.676100 -0.237500
vn 0.301500 0.062800 0.951400
vn -0.824400 -0.384900 -0.415100
vn 0.001900 0.182700 0.983200
vn -0.216600 0.071200 0.973700
vn -0.701000 -0.696600 -0.152600
vn -0.768100 0.062800 0.637200
vn 0.225400 -0.209800 0.951400
vn -0.973600 0.169800 -0.152600
vn 0.598900 0.594600 -0.536400
vn 0.444500 0.832400 -0.330900
vn -0.935700 0.247700 0.251300
vn -0.935700 0.243400 0.255300
vn -0.935700 0.245100 0.253700
vn -0.983600 0.071200 0.165600
vn -0.042300 0.676200 -0.735500
vn 0.636500 -0.033600 0.770500
vn 0.323600 -0.895200 -0.306300
vn 0.523400 -0.797600 -0.299900
vn 0.523300 -0.797600 -0.299800
vn 0.523300 -0.797600 -0.299900
vn 0.598900 0.594700 -0.536300
vn 0.947500 -0.069200 0.312300
vn 0.592700 0.015400 -0.805300
vn -0.053600 -0.996900 -0.058400
vn -0.951900 0.033300 0.304700
vn -0.067000 0.217900 0.973700
vn 0.149000 0.959900 -0.237500
vn -0.636600 0.078700 0.767200
vn -0.929000 0.015300 -0.369700
vn -0.581200 0.078700 -0.810000
vn -0.580900 0.078700 -0.810200
vn -0.584700 -0.242800 -0.774100
vn -0.592000 -0.238300 -0.769900
vn -0.588300 -0.240600 -0.772000
vn -0.607300 0.097200 -0.788500
vn -0.614400 0.080500 -0.784900
vn -0.611600 0.087000 -0.786300
vn -0.056700 0.507500 0.859800
vn -0.168700 0.969100 -0.179800
vn 0.168700 -0.969100 0.179800
vn 0.168700 -0.969200 0.179700
vn -0.951900 0.033200 0.304700
vn -0.007100 -0.058100 0.998300
vn 0.592700 0.015300 -0.805300
vn 0.824500 0.483600 0.293900
vn 0.535600 0.033300 0.843800
vn -0.511100 0.607700 0.607900
vn -0.756600 0.554500 -0.346500
vn 0.062400 -0.069200 -0.995600
vn 0.577800 -0.050500 -0.814600
vn 0.483500 0.288700 -0.826400
vn 0.821300 0.536700 0.193500
vn -0.043000 -0.996900 0.066600
vn -0.042900 -0.996900 0.066600
vn 0.023100 0.492900 0.869800
vn 0.526700 0.554500 -0.644300
vn 0.053600 0.996900 0.058400
vn 0.967600 -0.058100 -0.245700
vn 0.473000 0.569600 0.672200
vn 0.043000 0.996900 -0.066600
vn 0.075700 0.483600 -0.872000
vn -0.139100 0.832500 -0.536200
vn 0.938000 0.213900 0.272700
vn 0.938000 0.213800 0.272700
vn -0.770000 0.569600 0.287500
vn -0.458800 0.607700 -0.648200
vn 0.835600 0.492900 -0.242400
vn 0.953400 -0.033600 -0.299900
vn 0.953300 -0.033600 -0.300000
vn 0.953400 -0.033600 -0.300000
vn 0.882800 -0.122600 0.453600
vn 0.882800 -0.122600 0.453500
vn -0.425700 0.200000 0.882500
vn -0.613600 -0.780600 -0.119100
vn -0.613500 -0.780600 -0.119100
vn -0.269200 0.903200 -0.334400
vn -0.269100 0.903200 -0.334500
vn -0.269200 0.903200 -0.334500
vn 0.882700 -0.122700 0.453600
vn -0.613500 -0.780700 -0.119000
vn 0.957500 -0.219800 -0.186900
vn -0.236400 -0.744700 -0.624100
vn -0.935200 -0.100300 0.339700
vn -0.935300 -0.101500 0.338900
vn -0.936100 -0.103000 0.336200
vn 0.301400 0.062800 0.951400
vn 0.225500 -0.209800 0.951400
vn 0.598900 0.594600 -0.536300
vn -0.935600 0.250000 0.249100
vn 0.444400 0.832500 -0.330900
vn 0.323700 -0.895200 -0.306300
vn -0.053600 -0.996900 -0.058500
vn -0.824300 -0.384800 -0.415200
vn -0.824400 -0.384900 -0.415000
vn -0.580200 0.078700 -0.810700
vn -0.580900 -0.245100 -0.776200
vn -0.603400 0.106200 -0.790400
vn 0.168600 -0.969200 0.179600
vn 0.535200 0.033300 0.844100
vn 0.534500 0.033400 0.844500
vn -0.269100 0.903200 -0.334400
usemtl None
s 1
f 3//1 4//1 6//2
f 10//3 11//3 1//4
f 11//5 14//5 2//5
f 3//6 2//6 15//6
f 3//7 18//7 19//7
f 25//8 4//8 26//8
f 7//9 25//9 28//9
f 14//10 3//10 15//10
f 2//11 14//11 15//11
f 31//12 22//12 35//12
f 44//13 45//13 50//13
f 24//14 23//14 53//14
f 25//15 48//15 58//15
f 20//16 34//16 26//16
f 8//17 7//18 60//19
f 11//9 10//9 62//9
f 18//20 34//20 19//20
f 19//21 34//21 20//21
f 63//22 29//22 35//22
f 63//16 64//16 30//16
f 50//16 33//16 32//16
f 51//23 67//23 68//23
f 70//24 71//25 72//26
f 36//15 75//27 76//15
f 37//28 79//28 80//28
f 38//29 78//29 39//29
f 78//30 77//30 81//30
f 82//30 83//30 43//30
f 43//30 83//30 44//30
f 48//31 47//31 84//31
f 23//32 49//32 53//32
f 49//33 24//33 53//33
f 86//34 55//34 54//34
f 56//35 91//35 92//35
f 90//8 100//8 101//8
f 48//31 105//31 106//31
f 107//36 108//36 86//37
f 9//38 8//39 110//40
f 110//41 8//42 61//43
f 28//44 113//44 60//44
f 114//45 112//45 61//45
f 10//46 9//46 97//46
f 12//5 11//5 62//5
f 62//46 10//46 96//47
f 66//31 65//48 115//48
f 66//31 44//31 67//31
f 74//24 36//24 73//24
f 70//24 117//26 71//25
f 106//49 105//49 118//49
f 79//50 121//50 109//50
f 79//51 123//51 124//51
f 81//30 77//30 125//30
f 126//49 83//49 82//49
f 127//31 48//31 84//31
f 128//52 129//52 130//52
f 88//53 87//53 132//53
f 90//34 89//34 93//34
f 91//54 88//54 133//54
f 91//55 135//55 136//55
f 9//46 111//46 98//46
f 110//56 137//56 138//56
f 110//57 112//57 114//57
f 137//58 114//58 113//58
f 94//5 62//5 95//5
f 116//31 83//31 126//31
f 136//59 139//60 140//60
f 141//59 142//60 128//59
f 120//15 76//15 75//27
f 125//30 77//30 119//30
f 106//61 80//61 124//61
f 108//62 144//62 123//62
f 145//63 143//63 124//63
f 104//31 48//31 127//31
f 135//64 129//64 128//64
f 129//65 146//65 132//65
f 146//66 147//66 134//66
f 135//67 91//67 134//67
f 102//68 148//68 103//68
f 149//69 138//69 148//70
f 107//71 106//71 143//71
f 111//46 138//46 99//46
f 107//72 145//72 144//72
f 135//73 147//73 146//73
f 149//74 148//75 102//76
f 100//5 149//5 101//5
f 64//77 68//78 119//78
f 150//79 151//79 152//79
f 46//80 32//80 152//80
f 68//80 126//81 82//80
f 127//82 46//83 104//82
f 130//78 75//77 74//78
f 131//80 72//80 71//80
f 121//84 130//84 122//84
f 141//85 153//85 142//85
f 140//86 153//86 141//86
f 142//87 153//87 139//87
f 139//88 153//88 140//88
f 85//84 54//84 59//84
f 6//2 1//2 2//1
f 2//1 3//1 6//2
f 4//1 5//1 6//2
f 1//4 6//3 7//89
f 7//89 8//90 1//4
f 9//91 10//3 1//4
f 1//4 8//90 9//91
f 2//5 1//5 11//5
f 11//5 12//5 13//5
f 13//5 14//5 11//5
f 13//7 16//7 17//7
f 20//7 21//92 4//92
f 14//7 13//7 17//7
f 19//7 20//7 4//92
f 3//7 14//7 18//7
f 19//7 4//92 3//7
f 14//7 17//7 18//7
f 26//8 22//8 23//8
f 23//8 24//8 25//8
f 25//8 5//8 4//8
f 4//8 21//8 26//8
f 26//8 23//8 25//8
f 7//9 6//9 25//9
f 25//9 27//9 28//9
f 6//9 5//9 25//9
f 35//12 29//12 31//12
f 31//12 32//12 22//12
f 29//12 30//12 31//12
f 18//12 17//12 22//12
f 26//12 34//12 18//12
f 32//12 33//12 22//12
f 22//12 26//12 18//12
f 17//12 35//12 22//12
f 36//13 37//13 38//13
f 50//13 51//13 44//13
f 36//13 38//13 39//13
f 23//13 22//13 46//13
f 52//13 36//13 41//13
f 49//13 23//13 46//13
f 39//13 40//13 41//13
f 47//13 48//13 46//13
f 36//13 39//13 41//13
f 46//13 48//13 49//13
f 52//13 41//13 43//13
f 46//13 22//13 33//93
f 41//13 42//13 43//13
f 46//13 33//93 45//13
f 52//13 43//13 44//13
f 45//13 33//93 50//13
f 51//13 52//13 44//13
f 59//15 54//15 27//15
f 55//94 56//94 57//94
f 27//15 25//15 58//15
f 55//94 57//94 27//15
f 58//15 59//15 27//15
f 49//15 48//15 25//15
f 25//15 24//15 49//15
f 54//15 55//94 27//15
f 21//16 20//16 26//16
f 61//95 8//17 60//19
f 29//16 63//16 30//16
f 32//16 65//16 50//16
f 66//96 50//16 65//16
f 17//23 16//23 51//23
f 64//23 63//23 68//23
f 35//23 17//23 51//23
f 51//23 50//23 67//23
f 66//97 67//23 50//23
f 68//23 63//23 35//23
f 35//23 51//23 68//23
f 52//24 69//24 70//24
f 72//26 73//24 36//24
f 52//24 70//24 72//26
f 72//26 36//24 52//24
f 76//15 37//15 36//15
f 36//15 74//27 75//27
f 80//28 77//28 37//28
f 78//28 38//28 77//28
f 37//28 76//28 79//28
f 77//28 38//28 37//28
f 81//30 40//30 78//30
f 39//98 78//30 40//30
f 42//30 82//30 43//30
f 54//34 85//34 86//34
f 86//34 87//34 88//34
f 88//34 55//34 86//34
f 92//35 89//35 56//35
f 56//35 55//35 91//35
f 89//35 90//35 56//35
f 88//35 91//35 55//35
f 93//8 69//8 52//8
f 57//8 56//8 102//8
f 90//8 93//8 99//8
f 52//8 51//8 13//8
f 12//8 94//8 93//8
f 51//8 16//8 13//8
f 13//8 12//8 93//8
f 96//99 97//100 93//8
f 94//8 95//99 93//8
f 93//8 52//8 13//8
f 102//8 103//8 57//8
f 95//99 96//99 93//8
f 102//8 56//8 101//8
f 97//100 98//100 93//8
f 101//8 56//8 90//8
f 93//8 98//100 99//8
f 99//8 100//8 90//8
f 107//31 58//31 48//31
f 48//31 104//31 105//31
f 106//31 107//31 48//31
f 85//36 59//36 86//37
f 58//36 107//36 86//37
f 108//36 109//101 86//37
f 86//37 59//36 58//36
f 111//102 9//38 110//40
f 112//103 110//41 61//43
f 7//44 28//44 60//44
f 61//45 60//45 114//45
f 113//45 114//45 60//45
f 96//47 10//46 97//46
f 94//5 12//5 62//5
f 95//104 62//46 96//47
f 116//31 67//31 83//31
f 66//31 115//48 45//31
f 45//31 44//31 66//31
f 83//31 67//31 44//31
f 119//49 77//49 118//49
f 80//49 106//49 118//49
f 118//49 77//49 80//49
f 122//50 109//50 121//50
f 79//50 76//50 121//50
f 109//50 108//50 79//50
f 76//50 120//50 121//50
f 80//51 79//51 124//51
f 129//52 87//52 109//105
f 131//52 117//52 70//52
f 87//52 86//106 109//105
f 131//52 70//52 128//52
f 129//52 109//105 130//52
f 130//52 131//52 128//52
f 109//105 122//52 130//52
f 133//53 88//53 132//53
f 134//54 91//54 133//54
f 92//55 91//55 136//55
f 97//46 9//46 98//46
f 111//56 110//56 138//56
f 137//57 110//57 114//57
f 28//58 137//58 113//58
f 141//59 70//59 140//60
f 69//59 93//59 89//59
f 92//59 136//59 69//59
f 69//59 89//59 92//59
f 140//60 70//59 69//59
f 128//59 139//60 136//59
f 69//59 136//59 140//60
f 142//60 139//60 128//59
f 128//59 70//59 141//59
f 143//61 106//61 124//61
f 79//62 108//62 123//62
f 124//63 123//63 144//63
f 144//63 145//63 124//63
f 136//64 135//64 128//64
f 87//65 129//65 132//65
f 134//66 133//66 146//66
f 132//66 146//66 133//66
f 147//67 135//67 134//67
f 57//69 103//70 148//70
f 149//69 100//70 99//69
f 57//69 148//70 138//69
f 28//69 27//69 137//69
f 138//69 137//69 57//69
f 149//69 99//69 138//69
f 137//69 27//69 57//69
f 145//71 107//71 143//71
f 98//46 111//46 99//46
f 108//72 107//72 144//72
f 129//73 135//73 146//73
f 101//74 149//74 102//76
f 151//78 150//78 30//78
f 41//78 40//77 81//77
f 150//78 31//78 30//78
f 41//78 81//77 125//78
f 151//78 30//78 118//78
f 41//78 125//78 119//78
f 118//78 30//78 64//77
f 68//78 41//78 119//78
f 119//78 118//78 64//77
f 150//80 152//80 31//80
f 46//80 45//80 32//80
f 115//80 65//80 32//80
f 32//80 31//80 152//80
f 45//80 115//80 32//80
f 68//80 67//80 116//80
f 82//80 42//80 41//80
f 68//80 116//80 126//81
f 82//80 41//80 68//80
f 152//83 151//83 105//83
f 105//83 104//82 46//83
f 151//83 118//84 105//83
f 47//107 46//83 84//83
f 152//83 105//83 46//83
f 84//83 46//83 127//82
f 73//78 72//78 131//78
f 131//78 130//78 74//78
f 121//78 120//78 130//78
f 74//78 73//78 131//78
f 120//78 75//77 130//78
f 117//80 131//80 71//80
