# Blender v2.77 (sub 0) OBJ File: 'mine.blend'
# www.blender.org
mtllib mine.mtl
o Cube
v 0.099564 0.453735 0.099564
v -0.099564 0.453735 0.099564
v 0.099564 0.522957 0.099564
v -0.099564 0.522957 0.099564
v -0.014807 -0.003557 0.015057
v -0.002635 0.468228 -0.051554
v -0.030440 0.345119 0.030438
v -0.000525 0.345119 0.042830
v 0.040578 0.359954 0.041584
v 0.040578 0.468228 0.041584
v -0.000525 0.359954 0.058609
v -0.000525 0.468228 0.058609
v -0.041627 0.359954 0.041584
v -0.041627 0.468228 0.041584
v 0.029391 0.345119 0.030438
v 0.000574 -0.003557 0.021428
v 0.015956 -0.003557 0.015057
v -0.217077 0.531187 0.177282
v -0.206983 0.573349 0.167188
v -0.097909 0.474129 0.058115
v -0.087816 0.516291 0.048021
v -0.176010 0.531187 0.218350
v -0.165916 0.573349 0.208256
v -0.056842 0.474129 0.099182
v -0.046748 0.516291 0.089088
v -0.235924 0.515655 0.165872
v -0.218393 0.588881 0.148342
v -0.164600 0.515655 0.237196
v -0.147069 0.588881 0.219666
v -0.288156 0.540665 0.218105
v -0.270626 0.613890 0.200574
v -0.216832 0.540665 0.289428
v -0.199302 0.613890 0.271898
v -0.231930 0.520887 0.191718
v -0.190445 0.520887 0.233203
v -0.262311 0.535433 0.222098
v -0.220826 0.535433 0.263583
v -0.419726 -0.263545 0.379514
v -0.378241 -0.263545 0.420999
v -0.450107 -0.248998 0.409894
v -0.408622 -0.248998 0.451379
v -0.217077 0.531187 0.177282
v -0.206983 0.573349 0.167188
v -0.097909 0.474129 0.058115
v -0.087816 0.516291 0.048021
v -0.176010 0.531187 0.218350
v -0.165916 0.573349 0.208256
v -0.056842 0.474129 0.099182
v -0.046748 0.516291 0.089088
v -0.235924 0.515655 0.165872
v -0.218393 0.588881 0.148342
v -0.164600 0.515655 0.237196
v -0.288156 0.540665 0.218105
v -0.270626 0.613890 0.200574
v -0.216832 0.540665 0.289428
v -0.199302 0.613890 0.271898
v -0.231930 0.520887 0.191718
v -0.190445 0.520887 0.233203
v -0.262311 0.535433 0.222098
v -0.220826 0.535433 0.263583
v -0.419726 -0.263545 0.379514
v -0.378241 -0.263545 0.420999
v -0.450107 -0.248998 0.409894
v -0.408622 -0.248998 0.451379
v 0.174774 0.531187 0.216691
v 0.164680 0.573349 0.206597
v 0.215841 0.531187 0.175623
v 0.205748 0.573349 0.165530
v 0.163364 0.515655 0.235537
v 0.145834 0.588881 0.218007
v 0.234688 0.515655 0.164214
v 0.217157 0.588881 0.146683
v 0.215596 0.540665 0.287770
v 0.198066 0.613890 0.270239
v 0.286920 0.540665 0.216446
v 0.269390 0.613890 0.198916
v 0.189209 0.520887 0.231544
v 0.230694 0.520887 0.190059
v 0.219590 0.535433 0.261925
v 0.261075 0.535433 0.220440
v 0.377005 -0.263544 0.419340
v 0.418490 -0.263544 0.377855
v 0.407386 -0.248998 0.449721
v 0.448871 -0.248998 0.408236
v 0.174774 0.531187 0.216691
v 0.164680 0.573349 0.206597
v 0.055606 0.474129 0.097523
v 0.045513 0.516291 0.087429
v 0.215841 0.531187 0.175623
v 0.205748 0.573349 0.165530
v 0.096674 0.474129 0.056456
v 0.086580 0.516291 0.046362
v 0.163364 0.515655 0.235537
v 0.145834 0.588881 0.218007
v 0.234688 0.515655 0.164214
v 0.215596 0.540665 0.287770
v 0.198066 0.613890 0.270239
v 0.286920 0.540665 0.216446
v 0.269390 0.613890 0.198916
v 0.189209 0.520887 0.231544
v 0.230694 0.520887 0.190059
v 0.219590 0.535433 0.261925
v 0.261075 0.535433 0.220440
v 0.377005 -0.263544 0.419340
v 0.418490 -0.263544 0.377855
v 0.407386 -0.248998 0.449721
v 0.448871 -0.248998 0.408236
v 0.099564 0.453735 0.000000
v 0.099564 0.453735 -0.099564
v -0.099564 0.453735 -0.099564
v -0.099564 0.453735 0.000000
v 0.099564 0.522957 0.000000
v 0.099564 0.522957 -0.099564
v -0.099564 0.522957 -0.099564
v -0.099564 0.522957 0.000000
v -0.014807 -0.003557 -0.015057
v -0.021178 -0.003557 0.000000
v -0.042831 0.345119 0.000000
v -0.002635 0.468228 0.051554
v -0.030440 0.345119 -0.030438
v -0.000525 0.345119 -0.042830
v 0.057603 0.359954 0.000000
v 0.057603 0.468228 0.000000
v 0.040578 0.359954 -0.041584
v 0.040578 0.468228 -0.041584
v -0.000525 0.359954 -0.058609
v -0.000525 0.468228 -0.058609
v -0.041627 0.359954 -0.041584
v -0.041627 0.468228 -0.041584
v -0.058653 0.359954 0.000000
v -0.058653 0.468228 0.000000
v 0.029391 0.345119 -0.030438
v 0.041782 0.345119 0.000000
v 0.000574 -0.003557 -0.021428
v 0.015956 -0.003557 -0.015057
v 0.022327 -0.003557 0.000000
v -0.217077 0.531187 -0.177282
v -0.206983 0.573349 -0.167188
v -0.097909 0.474129 -0.058115
v -0.087816 0.516291 -0.048021
v -0.176010 0.531187 -0.218350
v -0.165916 0.573349 -0.208256
v -0.056842 0.474129 -0.099182
v -0.046748 0.516291 -0.089088
v -0.235924 0.515655 -0.165872
v -0.218393 0.588881 -0.148342
v -0.164600 0.515655 -0.237196
v -0.147069 0.588881 -0.219666
v -0.288156 0.540665 -0.218105
v -0.270626 0.613890 -0.200574
v -0.216832 0.540665 -0.289428
v -0.199302 0.613890 -0.271898
v -0.231930 0.520887 -0.191718
v -0.190445 0.520887 -0.233203
v -0.262311 0.535433 -0.222098
v -0.220826 0.535433 -0.263583
v -0.419726 -0.263545 -0.379514
v -0.378241 -0.263545 -0.420999
v -0.450107 -0.248998 -0.409894
v -0.408622 -0.248998 -0.451379
v -0.217077 0.531187 -0.177282
v -0.206983 0.573349 -0.167188
v -0.097909 0.474129 -0.058115
v -0.087816 0.516291 -0.048021
v -0.176010 0.531187 -0.218350
v -0.165916 0.573349 -0.208256
v -0.056842 0.474129 -0.099182
v -0.046748 0.516291 -0.089088
v -0.235924 0.515655 -0.165872
v -0.218393 0.588881 -0.148342
v -0.164600 0.515655 -0.237196
v -0.288156 0.540665 -0.218105
v -0.270626 0.613890 -0.200574
v -0.216832 0.540665 -0.289428
v -0.199302 0.613890 -0.271898
v -0.231930 0.520887 -0.191718
v -0.190445 0.520887 -0.233203
v -0.262311 0.535433 -0.222098
v -0.220826 0.535433 -0.263583
v -0.419726 -0.263545 -0.379514
v -0.378241 -0.263545 -0.420999
v -0.450107 -0.248998 -0.409894
v -0.408622 -0.248998 -0.451379
v 0.174774 0.531187 -0.216691
v 0.164680 0.573349 -0.206597
v 0.215841 0.531187 -0.175623
v 0.205748 0.573349 -0.165530
v 0.163364 0.515655 -0.235537
v 0.145834 0.588881 -0.218007
v 0.234688 0.515655 -0.164214
v 0.217157 0.588881 -0.146683
v 0.215596 0.540665 -0.287770
v 0.198066 0.613890 -0.270239
v 0.286920 0.540665 -0.216446
v 0.269390 0.613890 -0.198916
v 0.189209 0.520887 -0.231544
v 0.230694 0.520887 -0.190059
v 0.219590 0.535433 -0.261925
v 0.261075 0.535433 -0.220440
v 0.377005 -0.263544 -0.419340
v 0.418490 -0.263544 -0.377855
v 0.407386 -0.248998 -0.449721
v 0.448871 -0.248998 -0.408236
v 0.174774 0.531187 -0.216691
v 0.164680 0.573349 -0.206597
v 0.055606 0.474129 -0.097523
v 0.045513 0.516291 -0.087429
v 0.215841 0.531187 -0.175623
v 0.205748 0.573349 -0.165530
v 0.096674 0.474129 -0.056456
v 0.086580 0.516291 -0.046362
v 0.163364 0.515655 -0.235537
v 0.145834 0.588881 -0.218007
v 0.234688 0.515655 -0.164214
v 0.215596 0.540665 -0.287770
v 0.198066 0.613890 -0.270239
v 0.286920 0.540665 -0.216446
v 0.269390 0.613890 -0.198916
v 0.189209 0.520887 -0.231544
v 0.230694 0.520887 -0.190059
v 0.219590 0.535433 -0.261925
v 0.261075 0.535433 -0.220440
v 0.377005 -0.263544 -0.419340
v 0.418490 -0.263544 -0.377855
v 0.407386 -0.248998 -0.449721
v 0.448871 -0.248998 -0.408236
vn 0.0000 -1.0000 0.0000
vn 0.0000 1.0000 0.0000
vn 1.0000 -0.0000 0.0000
vn -0.0000 -0.0000 1.0000
vn -1.0000 0.0000 -0.0000
vn 0.6698 -0.3207 -0.6698
vn -0.3820 -0.0578 0.9223
vn 0.7071 0.0000 0.7071
vn 0.6589 -0.7028 0.2682
vn 0.9254 0.0000 0.3789
vn -0.7071 0.0000 -0.7071
vn 0.3827 0.0000 0.9239
vn -0.3827 0.0000 0.9239
vn 0.2268 0.9472 -0.2268
vn 0.9197 -0.0513 0.3892
vn -0.9254 0.0000 0.3789
vn -0.6601 -0.7009 0.2703
vn -0.9194 -0.0584 0.3890
vn -0.2729 -0.7009 0.6589
vn -0.2268 -0.9472 0.2268
vn 0.2729 -0.7009 0.6589
vn 0.3821 -0.0554 0.9225
vn -0.6698 0.3207 0.6698
vn -0.6698 -0.3207 -0.6698
vn -0.2268 0.9472 -0.2268
vn 0.6698 0.3207 0.6698
vn -0.7071 0.0000 0.7071
vn 0.2268 -0.9472 0.2268
vn 0.7071 0.0000 -0.7071
vn -0.0000 -0.0000 -1.0000
vn 0.6698 -0.3207 0.6698
vn -0.3820 -0.0578 -0.9223
vn 0.6601 -0.7009 -0.2703
vn 0.9254 0.0000 -0.3789
vn 0.3827 0.0000 -0.9239
vn -0.3827 0.0000 -0.9239
vn 0.2268 0.9472 0.2268
vn 0.9249 -0.0522 -0.3765
vn -0.9254 0.0000 -0.3789
vn -0.6601 -0.7009 -0.2703
vn -0.9247 -0.0574 -0.3764
vn -0.2729 -0.7009 -0.6589
vn -0.2268 -0.9472 -0.2268
vn 0.2729 -0.7009 -0.6589
vn 0.3821 -0.0554 -0.9225
vn -0.6698 0.3207 -0.6698
vn -0.6698 -0.3207 0.6698
vn -0.2268 0.9472 0.2268
vn 0.6698 0.3207 -0.6698
vn 0.2268 -0.9472 -0.2268
vn 0.6601 -0.7009 0.2703
vn 0.9249 -0.0522 0.3765
vn -0.6589 -0.7028 0.2682
vn -0.9247 -0.0574 0.3764
vn 0.6589 -0.7028 -0.2682
vn 0.9197 -0.0513 -0.3892
vn -0.6589 -0.7028 -0.2682
vn -0.9194 -0.0584 -0.3890
usemtl Material
s off
f 1//1 111//1 108//1
f 115//2 3//2 112//2
f 112//3 1//3 108//3
f 3//4 2//4 1//4
f 4//5 111//5 2//5
f 19//6 26//6 27//6
f 8//7 5//7 16//7
f 25//8 22//8 24//8
f 122//9 15//9 133//9
f 21//6 24//6 20//6
f 123//10 9//10 122//10
f 21//11 18//11 19//11
f 10//12 11//12 9//12
f 5//1 117//1 136//1
f 12//13 13//13 11//13
f 23//14 21//14 19//14
f 133//15 17//15 136//15
f 14//16 130//16 13//16
f 130//17 7//17 13//17
f 7//18 117//18 5//18
f 11//19 7//19 8//19
f 20//20 22//20 18//20
f 11//21 15//21 9//21
f 15//22 16//22 17//22
f 29//14 31//14 33//14
f 23//6 27//6 29//6
f 23//6 28//6 22//6
f 18//6 28//6 26//6
f 33//23 30//23 32//23
f 27//11 30//11 31//11
f 32//20 35//20 28//20
f 28//8 33//8 32//8
f 34//11 40//11 36//11
f 30//20 37//20 32//20
f 26//20 35//20 34//20
f 26//20 36//20 30//20
f 38//20 41//20 40//20
f 34//6 39//6 38//6
f 35//8 41//8 39//8
f 36//23 41//23 37//23
f 43//6 50//6 51//6
f 49//8 46//8 48//8
f 45//6 48//6 44//6
f 45//11 42//11 43//11
f 47//14 45//14 43//14
f 44//20 46//20 42//20
f 42//6 52//6 50//6
f 56//23 53//23 55//23
f 51//11 53//11 54//11
f 55//20 58//20 52//20
f 57//11 63//11 59//11
f 53//20 60//20 55//20
f 50//20 58//20 57//20
f 50//20 59//20 53//20
f 61//20 64//20 63//20
f 57//6 62//6 61//6
f 58//8 64//8 62//8
f 59//23 64//23 60//23
f 66//24 69//24 70//24
f 70//25 76//25 72//25
f 66//24 72//24 68//24
f 68//24 71//24 67//24
f 67//24 69//24 65//24
f 76//26 73//26 75//26
f 69//27 74//27 70//27
f 75//28 78//28 71//28
f 72//29 75//29 71//29
f 79//27 81//27 83//27
f 73//28 80//28 75//28
f 69//28 78//28 77//28
f 73//28 77//28 79//28
f 81//28 84//28 83//28
f 77//24 82//24 81//24
f 80//29 82//29 78//29
f 80//26 83//26 84//26
f 86//24 93//24 94//24
f 90//29 91//29 92//29
f 88//24 91//24 87//24
f 86//27 87//27 85//27
f 92//25 86//25 90//25
f 87//28 89//28 85//28
f 89//24 93//24 85//24
f 99//26 96//26 98//26
f 93//27 97//27 94//27
f 98//28 101//28 95//28
f 102//27 104//27 106//27
f 96//28 103//28 98//28
f 93//28 101//28 100//28
f 96//28 100//28 102//28
f 104//28 107//28 106//28
f 100//24 105//24 104//24
f 103//29 105//29 101//29
f 103//26 106//26 107//26
f 111//1 109//1 108//1
f 113//2 115//2 112//2
f 109//3 112//3 108//3
f 110//30 113//30 109//30
f 111//5 114//5 110//5
f 115//4 108//4 112//4
f 138//31 145//31 137//31
f 121//32 116//32 120//32
f 143//29 142//29 144//29
f 122//33 132//33 124//33
f 140//31 143//31 144//31
f 124//34 123//34 122//34
f 137//27 140//27 138//27
f 126//35 125//35 124//35
f 136//1 116//1 135//1
f 128//36 127//36 126//36
f 138//37 144//37 142//37
f 133//38 135//38 132//38
f 130//39 129//39 128//39
f 120//40 130//40 128//40
f 120//41 117//41 118//41
f 126//42 120//42 128//42
f 137//43 143//43 139//43
f 132//44 126//44 124//44
f 132//45 134//45 121//45
f 148//37 150//37 146//37
f 142//31 146//31 138//31
f 147//31 142//31 141//31
f 137//31 147//31 141//31
f 152//46 149//46 150//46
f 150//27 145//27 146//27
f 154//43 151//43 147//43
f 147//29 152//29 148//29
f 159//27 153//27 155//27
f 156//43 149//43 151//43
f 145//43 154//43 147//43
f 155//43 145//43 149//43
f 157//43 160//43 158//43
f 157//31 154//31 153//31
f 158//29 156//29 154//29
f 156//46 159//46 155//46
f 162//31 169//31 161//31
f 167//29 166//29 168//29
f 164//31 167//31 168//31
f 161//27 164//27 162//27
f 162//37 168//37 166//37
f 161//43 167//43 163//43
f 161//31 171//31 165//31
f 175//46 172//46 173//46
f 173//27 169//27 170//27
f 177//43 174//43 171//43
f 182//27 176//27 178//27
f 179//43 172//43 174//43
f 169//43 177//43 171//43
f 178//43 169//43 172//43
f 180//43 183//43 181//43
f 180//31 177//31 176//31
f 181//29 179//29 177//29
f 179//46 182//46 178//46
f 185//47 188//47 184//47
f 195//48 189//48 191//48
f 191//47 185//47 187//47
f 190//47 187//47 186//47
f 188//47 186//47 184//47
f 195//49 192//49 193//49
f 193//11 188//11 189//11
f 197//50 194//50 190//50
f 194//8 191//8 190//8
f 202//11 196//11 198//11
f 199//50 192//50 194//50
f 196//50 190//50 188//50
f 192//50 196//50 188//50
f 200//50 203//50 201//50
f 196//47 201//47 197//47
f 201//8 199//8 197//8
f 203//49 198//49 199//49
f 205//47 212//47 204//47
f 210//8 209//8 211//8
f 207//47 210//47 211//47
f 204//11 207//11 205//11
f 205//48 211//48 209//48
f 208//50 206//50 204//50
f 212//47 208//47 204//47
f 218//49 215//49 216//49
f 216//11 212//11 213//11
f 220//50 217//50 214//50
f 225//11 219//11 221//11
f 222//50 215//50 217//50
f 219//50 214//50 212//50
f 215//50 219//50 212//50
f 223//50 226//50 224//50
f 219//47 224//47 220//47
f 224//8 222//8 220//8
f 226//49 221//49 222//49
f 1//1 2//1 111//1
f 115//2 4//2 3//2
f 112//3 3//3 1//3
f 3//4 4//4 2//4
f 4//5 115//5 111//5
f 19//6 18//6 26//6
f 8//7 7//7 5//7
f 25//8 23//8 22//8
f 122//51 9//51 15//51
f 21//6 25//6 24//6
f 123//10 10//10 9//10
f 21//11 20//11 18//11
f 10//12 12//12 11//12
f 136//1 17//1 5//1
f 16//1 5//1 17//1
f 12//13 14//13 13//13
f 23//14 25//14 21//14
f 133//52 15//52 17//52
f 14//16 131//16 130//16
f 130//53 118//53 7//53
f 7//54 118//54 117//54
f 11//19 13//19 7//19
f 20//20 24//20 22//20
f 11//21 8//21 15//21
f 15//22 8//22 16//22
f 29//14 27//14 31//14
f 23//6 19//6 27//6
f 23//6 29//6 28//6
f 18//6 22//6 28//6
f 33//23 31//23 30//23
f 27//11 26//11 30//11
f 32//20 37//20 35//20
f 28//8 29//8 33//8
f 34//11 38//11 40//11
f 30//20 36//20 37//20
f 26//20 28//20 35//20
f 26//20 34//20 36//20
f 38//20 39//20 41//20
f 34//6 35//6 39//6
f 35//8 37//8 41//8
f 36//23 40//23 41//23
f 43//6 42//6 50//6
f 49//8 47//8 46//8
f 45//6 49//6 48//6
f 45//11 44//11 42//11
f 47//14 49//14 45//14
f 44//20 48//20 46//20
f 42//6 46//6 52//6
f 56//23 54//23 53//23
f 51//11 50//11 53//11
f 55//20 60//20 58//20
f 57//11 61//11 63//11
f 53//20 59//20 60//20
f 50//20 52//20 58//20
f 50//20 57//20 59//20
f 61//20 62//20 64//20
f 57//6 58//6 62//6
f 58//8 60//8 64//8
f 59//23 63//23 64//23
f 66//24 65//24 69//24
f 70//25 74//25 76//25
f 66//24 70//24 72//24
f 68//24 72//24 71//24
f 67//24 71//24 69//24
f 76//26 74//26 73//26
f 69//27 73//27 74//27
f 75//28 80//28 78//28
f 72//29 76//29 75//29
f 79//27 77//27 81//27
f 73//28 79//28 80//28
f 69//28 71//28 78//28
f 73//28 69//28 77//28
f 81//28 82//28 84//28
f 77//24 78//24 82//24
f 80//29 84//29 82//29
f 80//26 79//26 83//26
f 86//24 85//24 93//24
f 90//29 89//29 91//29
f 88//24 92//24 91//24
f 86//27 88//27 87//27
f 92//25 88//25 86//25
f 87//28 91//28 89//28
f 89//24 95//24 93//24
f 99//26 97//26 96//26
f 93//27 96//27 97//27
f 98//28 103//28 101//28
f 102//27 100//27 104//27
f 96//28 102//28 103//28
f 93//28 95//28 101//28
f 96//28 93//28 100//28
f 104//28 105//28 107//28
f 100//24 101//24 105//24
f 103//29 107//29 105//29
f 103//26 102//26 106//26
f 111//1 110//1 109//1
f 113//2 114//2 115//2
f 109//3 113//3 112//3
f 110//30 114//30 113//30
f 111//5 115//5 114//5
f 115//4 111//4 108//4
f 138//31 146//31 145//31
f 121//32 134//32 116//32
f 143//29 141//29 142//29
f 122//55 133//55 132//55
f 140//31 139//31 143//31
f 124//34 125//34 123//34
f 137//27 139//27 140//27
f 126//35 127//35 125//35
f 134//1 135//1 116//1
f 136//1 117//1 116//1
f 128//36 129//36 127//36
f 138//37 140//37 144//37
f 133//56 136//56 135//56
f 130//39 131//39 129//39
f 120//57 118//57 130//57
f 120//58 116//58 117//58
f 126//42 121//42 120//42
f 137//43 141//43 143//43
f 132//44 121//44 126//44
f 132//45 135//45 134//45
f 148//37 152//37 150//37
f 142//31 148//31 146//31
f 147//31 148//31 142//31
f 137//31 145//31 147//31
f 152//46 151//46 149//46
f 150//27 149//27 145//27
f 154//43 156//43 151//43
f 147//29 151//29 152//29
f 159//27 157//27 153//27
f 156//43 155//43 149//43
f 145//43 153//43 154//43
f 155//43 153//43 145//43
f 157//43 159//43 160//43
f 157//31 158//31 154//31
f 158//29 160//29 156//29
f 156//46 160//46 159//46
f 162//31 170//31 169//31
f 167//29 165//29 166//29
f 164//31 163//31 167//31
f 161//27 163//27 164//27
f 162//37 164//37 168//37
f 161//43 165//43 167//43
f 161//31 169//31 171//31
f 175//46 174//46 172//46
f 173//27 172//27 169//27
f 177//43 179//43 174//43
f 182//27 180//27 176//27
f 179//43 178//43 172//43
f 169//43 176//43 177//43
f 178//43 176//43 169//43
f 180//43 182//43 183//43
f 180//31 181//31 177//31
f 181//29 183//29 179//29
f 179//46 183//46 182//46
f 185//47 189//47 188//47
f 195//48 193//48 189//48
f 191//47 189//47 185//47
f 190//47 191//47 187//47
f 188//47 190//47 186//47
f 195//49 194//49 192//49
f 193//11 192//11 188//11
f 197//50 199//50 194//50
f 194//8 195//8 191//8
f 202//11 200//11 196//11
f 199//50 198//50 192//50
f 196//50 197//50 190//50
f 192//50 198//50 196//50
f 200//50 202//50 203//50
f 196//47 200//47 201//47
f 201//8 203//8 199//8
f 203//49 202//49 198//49
f 205//47 213//47 212//47
f 210//8 208//8 209//8
f 207//47 206//47 210//47
f 204//11 206//11 207//11
f 205//48 207//48 211//48
f 208//50 210//50 206//50
f 212//47 214//47 208//47
f 218//49 217//49 215//49
f 216//11 215//11 212//11
f 220//50 222//50 217//50
f 225//11 223//11 219//11
f 222//50 221//50 215//50
f 219//50 220//50 214//50
f 215//50 221//50 219//50
f 223//50 225//50 226//50
f 219//47 223//47 224//47
f 224//8 226//8 222//8
f 226//49 225//49 221//49
