# Blender v2.77 (sub 0) OBJ File: 'storage.blend'
# www.blender.org
mtllib storage.mtl
o Plane
v -1.069668 0.000000 0.928566
v -1.069668 0.000000 -1.071434
v 0.930332 0.000000 -1.071434
v 0.930332 0.000000 0.928566
v 0.930332 0.549019 0.928566
v -1.069668 0.549019 0.928566
v -1.069668 0.549019 -1.071434
v 0.930332 0.549019 -1.071434
v 0.783773 0.549019 -0.844662
v 0.783773 0.549019 -0.113263
v 0.616803 0.549019 -0.113263
v 0.616803 0.549019 0.052147
v 0.783773 0.549019 0.052147
v 0.783773 0.549019 0.870417
v 0.247213 0.549019 0.870417
v 0.247213 0.549019 0.052147
v 0.414184 0.549019 0.052147
v 0.414184 0.549019 -0.113263
v 0.247213 0.549019 -0.113263
v 0.247213 0.549019 -0.241898
v -0.147511 0.549019 -0.241898
v -0.148678 0.549019 -0.237956
v -0.198701 0.549019 -0.107274
v -0.307527 0.549019 -0.019317
v -0.397830 0.549019 0.042743
v -0.417061 0.549019 0.048992
v -0.526597 0.549019 0.051865
v -0.666338 0.549019 0.044674
v -0.783622 0.549019 -0.031648
v -0.870549 0.549019 -0.098354
v -0.882434 0.549019 -0.114713
v -0.919011 0.549019 -0.217991
v -0.955356 0.549019 -0.353124
v -0.919011 0.549019 -0.488256
v -0.882434 0.549019 -0.591535
v -0.870549 0.549019 -0.607893
v -0.783622 0.549019 -0.674599
v -0.738596 0.549019 -0.703900
v -0.666338 0.549019 -0.750921
v -0.526597 0.549019 -0.758112
v -0.417061 0.549019 -0.755239
v -0.397830 0.549019 -0.748991
v -0.307527 0.549019 -0.686931
v -0.198701 0.549019 -0.598974
v -0.148678 0.549019 -0.468292
v -0.141637 0.549019 -0.444517
v 0.247213 0.549019 -0.444517
v 0.247213 0.549019 -0.931533
v 0.783773 0.549019 -0.931533
v 0.783773 1.266327 -0.931533
v 0.783773 1.266327 -0.113263
v 0.247213 1.266327 -0.113263
v 0.414184 0.704091 -0.113263
v 0.616803 0.704091 -0.113263
v 0.616803 0.704091 0.052147
v 0.247213 1.266327 0.052147
v 0.783773 1.266327 0.052147
v 0.414184 0.704091 0.052147
v 0.783773 1.266327 0.870417
v 0.247213 1.266327 0.870417
v 0.247213 1.266327 -0.931533
v 0.247213 0.704091 -0.444517
v 0.247213 0.704091 -0.241898
v -0.090898 0.704091 -0.241898
v -0.091151 0.687310 -0.444517
v -0.087946 0.704091 -0.444517
v -0.087946 0.704091 -0.251867
v -0.183012 0.570239 -0.095875
v -0.071715 0.789073 -0.201917
v -0.249472 0.789073 0.042746
v -0.071715 0.789073 -0.504330
v -0.200342 1.046327 -0.108464
v -0.099426 1.007905 -0.353124
v -0.183012 0.570239 -0.610372
v -0.537088 0.789073 0.136198
v -0.401846 1.007907 0.063117
v -0.200342 1.046327 -0.597783
v -0.249472 0.789073 -0.748993
v -0.672331 0.570239 0.063117
v -0.457595 1.205317 -0.108465
v -0.279837 1.205315 -0.353124
v -0.665716 1.046328 0.042743
v -0.824705 0.789073 0.042746
v -0.401846 1.007907 -0.769365
v -0.457595 1.205317 -0.597782
v -0.537088 0.789073 -0.842445
v -0.745208 1.205317 -0.201918
v -0.537088 1.278395 -0.353124
v -0.672331 0.570239 -0.769365
v -0.891165 1.007907 -0.095875
v -1.002461 0.789073 -0.201917
v -0.665716 1.046328 -0.748991
v -0.745208 1.205317 -0.504330
v -0.824705 0.789073 -0.748993
v -0.974750 0.570241 -0.353124
v -0.953329 1.046327 -0.353124
v -1.002461 0.789073 -0.504330
v -0.891165 1.007907 -0.610372
vn 0.0000 -1.0000 0.0000
vn 0.0000 0.0000 1.0000
vn -1.0000 0.0000 0.0000
vn 0.0000 0.0000 -1.0000
vn 1.0000 0.0000 0.0000
vn 0.0000 1.0000 -0.0000
vn 0.7002 -0.6617 0.2680
vn 0.9050 -0.3304 0.2680
vn 0.4713 -0.6617 0.5831
vn 0.8026 -0.1256 0.5831
vn 0.9822 -0.1876 0.0000
vn 0.5346 -0.3304 0.7779
vn 0.7947 0.1876 0.5773
vn 0.9921 0.1256 0.0000
vn 0.9050 -0.3304 -0.2680
vn 0.3035 -0.1876 0.9342
vn 0.5746 0.3304 0.7488
vn 0.8897 0.3304 0.3151
vn 0.8897 0.3304 -0.3151
vn 0.7002 -0.6617 -0.2680
vn 0.8026 -0.1256 -0.5831
vn 0.3066 0.1256 0.9435
vn 0.0247 -0.3304 0.9435
vn 0.4089 0.6617 0.6284
vn 0.7240 0.6617 0.1947
vn 0.7947 0.1876 -0.5773
vn 0.7240 0.6617 -0.1947
vn 0.4713 -0.6617 -0.5831
vn 0.5346 -0.3304 -0.7779
vn -0.0247 0.3304 0.9435
vn -0.3066 -0.1256 0.9435
vn -0.0385 -0.6617 0.7488
vn 0.0385 0.6617 0.7488
vn 0.4911 0.7947 0.3568
vn 0.5746 0.3304 -0.7488
vn 0.4911 0.7947 -0.3568
vn 0.3035 -0.1876 -0.9342
vn -0.3035 0.1876 0.9342
vn -0.5746 -0.3304 0.7488
vn -0.4089 -0.6617 0.6284
vn -0.1876 0.7947 0.5773
vn 0.2680 0.9435 0.1947
vn 0.3066 0.1256 -0.9435
vn 0.4089 0.6617 -0.6284
vn 0.2680 0.9435 -0.1947
vn 0.0247 -0.3304 -0.9435
vn -0.5346 0.3304 0.7779
vn -0.7947 -0.1876 0.5773
vn -0.1024 0.9435 0.3151
vn -0.4713 0.6617 0.5831
vn -0.0247 0.3304 -0.9435
vn 0.0385 0.6617 -0.7488
vn -0.1024 0.9435 -0.3151
vn -0.0385 -0.6617 -0.7488
vn -0.3066 -0.1256 -0.9435
vn -0.8026 0.1256 0.5831
vn -0.8897 -0.3304 0.3151
vn -0.3313 0.9435 0.0000
vn -0.7002 0.6617 0.2680
vn -0.3035 0.1876 -0.9342
vn -0.1876 0.7947 -0.5773
vn -0.4089 -0.6617 -0.6284
vn -0.5746 -0.3304 -0.7488
vn -0.9050 0.3304 0.2680
vn -0.9921 -0.1256 0.0000
vn -0.7240 -0.6617 0.1947
vn -0.6071 0.7947 0.0000
vn -0.5346 0.3304 -0.7779
vn -0.4713 0.6617 -0.5831
vn -0.7947 -0.1876 -0.5773
vn -0.9822 0.1876 0.0000
vn -0.8897 -0.3304 -0.3151
vn -0.7240 -0.6617 -0.1947
vn -0.7002 0.6617 -0.2680
vn -0.8026 0.1256 -0.5831
vn -0.9050 0.3304 -0.2680
usemtl None
s off
f 2//1 4//1 1//1
f 4//2 6//2 1//2
f 1//3 7//3 2//3
f 2//4 8//4 3//4
f 3//5 5//5 4//5
f 15//6 25//6 26//6
f 42//6 43//6 48//6
f 51//5 9//5 50//5
f 52//2 54//2 51//2
f 11//5 55//5 12//5
f 57//4 58//4 56//4
f 57//5 14//5 13//5
f 59//2 15//2 14//2
f 60//3 16//3 15//3
f 53//3 17//3 58//3
f 52//3 62//3 63//3
f 20//2 64//2 21//2
f 46//4 65//4 47//4
f 61//4 49//4 48//4
f 50//6 52//6 51//6
f 54//6 58//6 55//6
f 57//6 60//6 59//6
f 66//6 67//6 62//6
f 22//7 68//7 23//7
f 22//8 64//8 68//8
f 23//9 68//9 24//9
f 68//10 69//10 70//10
f 67//11 66//11 69//11
f 24//12 70//12 25//12
f 70//13 69//13 72//13
f 69//14 71//14 73//14
f 74//15 65//15 45//15
f 70//16 26//16 25//16
f 70//17 72//17 76//17
f 69//18 73//18 72//18
f 71//19 77//19 73//19
f 44//20 74//20 45//20
f 74//21 78//21 71//21
f 75//22 70//22 76//22
f 75//23 27//23 26//23
f 76//24 72//24 80//24
f 72//25 73//25 81//25
f 71//26 78//26 77//26
f 73//27 77//27 81//27
f 43//28 74//28 44//28
f 78//29 43//29 42//29
f 75//30 76//30 82//30
f 79//31 75//31 83//31
f 27//32 79//32 28//32
f 82//33 76//33 80//33
f 80//34 72//34 81//34
f 78//35 84//35 77//35
f 81//36 77//36 85//36
f 41//37 78//37 42//37
f 83//38 75//38 82//38
f 29//39 83//39 30//39
f 28//40 79//40 29//40
f 87//41 82//41 80//41
f 80//42 81//42 88//42
f 78//43 86//43 84//43
f 77//44 84//44 85//44
f 81//45 85//45 88//45
f 40//46 86//46 41//46
f 83//47 82//47 90//47
f 83//48 31//48 30//48
f 87//49 80//49 88//49
f 90//50 82//50 87//50
f 86//51 92//51 84//51
f 84//52 92//52 85//52
f 85//53 93//53 88//53
f 39//54 89//54 40//54
f 89//55 94//55 86//55
f 91//56 83//56 90//56
f 91//57 32//57 31//57
f 93//58 87//58 88//58
f 96//59 90//59 87//59
f 86//60 94//60 92//60
f 85//61 92//61 93//61
f 89//62 38//62 37//62
f 94//63 37//63 36//63
f 91//64 90//64 96//64
f 95//65 91//65 97//65
f 32//66 95//66 33//66
f 93//67 96//67 87//67
f 94//68 98//68 92//68
f 92//69 98//69 93//69
f 35//70 94//70 36//70
f 97//71 91//71 96//71
f 34//72 97//72 35//72
f 33//73 95//73 34//73
f 98//74 96//74 93//74
f 94//75 97//75 98//75
f 97//76 96//76 98//76
f 2//1 3//1 4//1
f 4//2 5//2 6//2
f 1//3 6//3 7//3
f 2//4 7//4 8//4
f 3//5 8//5 5//5
f 5//6 8//6 10//6
f 10//6 11//6 12//6
f 8//6 9//6 10//6
f 37//6 38//6 7//6
f 36//6 37//6 7//6
f 10//6 12//6 13//6
f 10//6 13//6 5//6
f 35//6 36//6 7//6
f 34//6 35//6 7//6
f 5//6 13//6 14//6
f 5//6 14//6 15//6
f 33//6 34//6 7//6
f 33//6 7//6 6//6
f 6//6 5//6 15//6
f 16//6 17//6 18//6
f 6//6 15//6 26//6
f 32//6 33//6 6//6
f 31//6 32//6 6//6
f 15//6 16//6 25//6
f 19//6 20//6 22//6
f 16//6 18//6 19//6
f 30//6 31//6 6//6
f 29//6 30//6 6//6
f 20//6 21//6 22//6
f 19//6 22//6 23//6
f 28//6 29//6 6//6
f 27//6 28//6 6//6
f 16//6 19//6 23//6
f 16//6 23//6 24//6
f 26//6 27//6 6//6
f 16//6 24//6 25//6
f 7//6 38//6 39//6
f 7//6 39//6 40//6
f 49//6 9//6 8//6
f 46//6 47//6 45//6
f 48//6 49//6 8//6
f 7//6 40//6 41//6
f 7//6 41//6 48//6
f 48//6 8//6 7//6
f 45//6 47//6 44//6
f 44//6 47//6 48//6
f 48//6 41//6 42//6
f 43//6 44//6 48//6
f 49//5 50//5 9//5
f 51//5 10//5 9//5
f 10//2 51//2 54//2
f 52//2 19//2 53//2
f 19//2 18//2 53//2
f 54//2 11//2 10//2
f 52//2 53//2 54//2
f 11//5 54//5 55//5
f 16//4 56//4 58//4
f 57//4 13//4 55//4
f 13//4 12//4 55//4
f 58//4 17//4 16//4
f 57//4 55//4 58//4
f 57//5 59//5 14//5
f 59//2 60//2 15//2
f 60//3 56//3 16//3
f 53//3 18//3 17//3
f 52//3 61//3 62//3
f 48//3 47//3 62//3
f 63//3 20//3 19//3
f 61//3 48//3 62//3
f 63//3 19//3 52//3
f 20//2 63//2 64//2
f 62//4 47//4 65//4
f 65//4 66//4 62//4
f 61//4 50//4 49//4
f 50//6 61//6 52//6
f 54//6 53//6 58//6
f 57//6 56//6 60//6
f 63//6 62//6 67//6
f 67//6 64//6 63//6
f 69//8 68//8 64//8
f 22//8 21//8 64//8
f 64//8 67//8 69//8
f 71//11 69//11 66//11
f 66//11 65//11 71//11
f 24//12 68//12 70//12
f 46//15 45//15 65//15
f 74//15 71//15 65//15
f 70//16 75//16 26//16
f 75//23 79//23 27//23
f 78//29 74//29 43//29
f 41//37 86//37 78//37
f 29//39 79//39 83//39
f 40//46 89//46 86//46
f 83//48 91//48 31//48
f 91//57 95//57 32//57
f 89//62 39//62 38//62
f 94//63 89//63 37//63
f 35//70 97//70 94//70
f 34//72 95//72 97//72
